<mxfile host="app.diagrams.net" modified="2021-03-02T16:00:44.479Z" agent="5.0 (Windows NT 10.0; Win64; x64) AppleWebKit/537.36 (KHTML, like Gecko) Chrome/88.0.4324.190 Safari/537.36" etag="Pl259JxN2HLGRHXf-oYw" version="14.4.3" type="github">
  <diagram id="C5RBs43oDa-KdzZeNtuy" name="Page-1">
    <mxGraphModel dx="1038" dy="548" grid="1" gridSize="10" guides="1" tooltips="1" connect="1" arrows="1" fold="1" page="1" pageScale="1" pageWidth="827" pageHeight="1169" math="0" shadow="0">
      <root>
        <mxCell id="WIyWlLk6GJQsqaUBKTNV-0" />
        <mxCell id="WIyWlLk6GJQsqaUBKTNV-1" parent="WIyWlLk6GJQsqaUBKTNV-0" />
        <mxCell id="gSDU4zGEOPTeR5sOLjtx-2" value="卖家" style="ellipse;whiteSpace=wrap;html=1;" vertex="1" parent="WIyWlLk6GJQsqaUBKTNV-1">
          <mxGeometry x="130" y="105" width="90" height="50" as="geometry" />
        </mxCell>
        <mxCell id="gSDU4zGEOPTeR5sOLjtx-3" value="买家" style="ellipse;whiteSpace=wrap;html=1;" vertex="1" parent="WIyWlLk6GJQsqaUBKTNV-1">
          <mxGeometry x="640" y="105" width="90" height="50" as="geometry" />
        </mxCell>
        <mxCell id="gSDU4zGEOPTeR5sOLjtx-25" style="edgeStyle=orthogonalEdgeStyle;rounded=0;orthogonalLoop=1;jettySize=auto;html=1;exitX=1;exitY=0.5;exitDx=0;exitDy=0;entryX=0.5;entryY=0;entryDx=0;entryDy=0;" edge="1" parent="WIyWlLk6GJQsqaUBKTNV-1" source="gSDU4zGEOPTeR5sOLjtx-4" target="gSDU4zGEOPTeR5sOLjtx-26">
          <mxGeometry relative="1" as="geometry">
            <mxPoint x="500" y="230" as="targetPoint" />
          </mxGeometry>
        </mxCell>
        <mxCell id="gSDU4zGEOPTeR5sOLjtx-4" value="物流" style="ellipse;whiteSpace=wrap;html=1;" vertex="1" parent="WIyWlLk6GJQsqaUBKTNV-1">
          <mxGeometry x="362" y="180" width="90" height="45" as="geometry" />
        </mxCell>
        <mxCell id="gSDU4zGEOPTeR5sOLjtx-6" value="企业大卖场" style="rounded=0;whiteSpace=wrap;html=1;" vertex="1" parent="WIyWlLk6GJQsqaUBKTNV-1">
          <mxGeometry x="362" y="40" width="86" height="40" as="geometry" />
        </mxCell>
        <mxCell id="gSDU4zGEOPTeR5sOLjtx-7" value="" style="endArrow=classic;html=1;" edge="1" parent="WIyWlLk6GJQsqaUBKTNV-1" source="gSDU4zGEOPTeR5sOLjtx-3" target="gSDU4zGEOPTeR5sOLjtx-6">
          <mxGeometry width="50" height="50" relative="1" as="geometry">
            <mxPoint x="390" y="330" as="sourcePoint" />
            <mxPoint x="440" y="280" as="targetPoint" />
            <Array as="points">
              <mxPoint x="580" y="110" />
            </Array>
          </mxGeometry>
        </mxCell>
        <mxCell id="gSDU4zGEOPTeR5sOLjtx-8" value="" style="endArrow=classic;html=1;" edge="1" parent="WIyWlLk6GJQsqaUBKTNV-1" source="gSDU4zGEOPTeR5sOLjtx-6" target="gSDU4zGEOPTeR5sOLjtx-2">
          <mxGeometry width="50" height="50" relative="1" as="geometry">
            <mxPoint x="390" y="330" as="sourcePoint" />
            <mxPoint x="440" y="280" as="targetPoint" />
            <Array as="points" />
          </mxGeometry>
        </mxCell>
        <mxCell id="gSDU4zGEOPTeR5sOLjtx-9" value="浏览、报价" style="text;html=1;align=center;verticalAlign=middle;resizable=0;points=[];autosize=1;" vertex="1" parent="WIyWlLk6GJQsqaUBKTNV-1">
          <mxGeometry x="490" y="70" width="80" height="20" as="geometry" />
        </mxCell>
        <mxCell id="gSDU4zGEOPTeR5sOLjtx-10" value="发送订单" style="text;html=1;align=center;verticalAlign=middle;resizable=0;points=[];autosize=1;" vertex="1" parent="WIyWlLk6GJQsqaUBKTNV-1">
          <mxGeometry x="270" y="70" width="60" height="20" as="geometry" />
        </mxCell>
        <mxCell id="gSDU4zGEOPTeR5sOLjtx-11" value="" style="endArrow=classic;startArrow=classic;html=1;" edge="1" parent="WIyWlLk6GJQsqaUBKTNV-1" source="gSDU4zGEOPTeR5sOLjtx-2" target="gSDU4zGEOPTeR5sOLjtx-3">
          <mxGeometry width="50" height="50" relative="1" as="geometry">
            <mxPoint x="440" y="290" as="sourcePoint" />
            <mxPoint x="490" y="240" as="targetPoint" />
          </mxGeometry>
        </mxCell>
        <mxCell id="gSDU4zGEOPTeR5sOLjtx-12" value="签订合同" style="edgeLabel;html=1;align=center;verticalAlign=middle;resizable=0;points=[];" vertex="1" connectable="0" parent="gSDU4zGEOPTeR5sOLjtx-11">
          <mxGeometry x="-0.1586" y="1" relative="1" as="geometry">
            <mxPoint x="23.01" y="-10.39" as="offset" />
          </mxGeometry>
        </mxCell>
        <mxCell id="gSDU4zGEOPTeR5sOLjtx-13" value="" style="endArrow=classic;html=1;entryX=0.5;entryY=0;entryDx=0;entryDy=0;" edge="1" parent="WIyWlLk6GJQsqaUBKTNV-1" source="gSDU4zGEOPTeR5sOLjtx-2" target="gSDU4zGEOPTeR5sOLjtx-14">
          <mxGeometry width="50" height="50" relative="1" as="geometry">
            <mxPoint x="440" y="290" as="sourcePoint" />
            <mxPoint x="490" y="240" as="targetPoint" />
          </mxGeometry>
        </mxCell>
        <mxCell id="gSDU4zGEOPTeR5sOLjtx-14" value="商品出库" style="rounded=1;whiteSpace=wrap;html=1;" vertex="1" parent="WIyWlLk6GJQsqaUBKTNV-1">
          <mxGeometry x="140" y="180" width="70" height="30" as="geometry" />
        </mxCell>
        <mxCell id="gSDU4zGEOPTeR5sOLjtx-15" value="" style="endArrow=classic;html=1;entryX=0.5;entryY=0;entryDx=0;entryDy=0;exitX=0.5;exitY=1;exitDx=0;exitDy=0;" edge="1" parent="WIyWlLk6GJQsqaUBKTNV-1" target="gSDU4zGEOPTeR5sOLjtx-16" source="gSDU4zGEOPTeR5sOLjtx-14">
          <mxGeometry width="50" height="50" relative="1" as="geometry">
            <mxPoint x="215" y="240" as="sourcePoint" />
            <mxPoint x="490" y="322.5" as="targetPoint" />
          </mxGeometry>
        </mxCell>
        <mxCell id="gSDU4zGEOPTeR5sOLjtx-18" value="" style="edgeStyle=orthogonalEdgeStyle;rounded=0;orthogonalLoop=1;jettySize=auto;html=1;" edge="1" parent="WIyWlLk6GJQsqaUBKTNV-1" source="gSDU4zGEOPTeR5sOLjtx-16" target="gSDU4zGEOPTeR5sOLjtx-17">
          <mxGeometry relative="1" as="geometry" />
        </mxCell>
        <mxCell id="gSDU4zGEOPTeR5sOLjtx-22" style="edgeStyle=orthogonalEdgeStyle;rounded=0;orthogonalLoop=1;jettySize=auto;html=1;exitX=0.5;exitY=1;exitDx=0;exitDy=0;" edge="1" parent="WIyWlLk6GJQsqaUBKTNV-1" source="gSDU4zGEOPTeR5sOLjtx-16">
          <mxGeometry relative="1" as="geometry">
            <mxPoint x="175" y="320" as="targetPoint" />
          </mxGeometry>
        </mxCell>
        <mxCell id="gSDU4zGEOPTeR5sOLjtx-16" value="生成出库单" style="rounded=1;whiteSpace=wrap;html=1;" vertex="1" parent="WIyWlLk6GJQsqaUBKTNV-1">
          <mxGeometry x="140" y="247.5" width="70" height="30" as="geometry" />
        </mxCell>
        <mxCell id="gSDU4zGEOPTeR5sOLjtx-17" value="发送货物运输单" style="rounded=1;whiteSpace=wrap;html=1;" vertex="1" parent="WIyWlLk6GJQsqaUBKTNV-1">
          <mxGeometry x="270" y="217.5" width="70" height="30" as="geometry" />
        </mxCell>
        <mxCell id="gSDU4zGEOPTeR5sOLjtx-20" value="" style="endArrow=classic;html=1;" edge="1" parent="WIyWlLk6GJQsqaUBKTNV-1" source="gSDU4zGEOPTeR5sOLjtx-17" target="gSDU4zGEOPTeR5sOLjtx-4">
          <mxGeometry width="50" height="50" relative="1" as="geometry">
            <mxPoint x="440" y="290" as="sourcePoint" />
            <mxPoint x="490" y="240" as="targetPoint" />
          </mxGeometry>
        </mxCell>
        <mxCell id="gSDU4zGEOPTeR5sOLjtx-24" value="制作应收账" style="rounded=1;whiteSpace=wrap;html=1;" vertex="1" parent="WIyWlLk6GJQsqaUBKTNV-1">
          <mxGeometry x="140" y="320" width="70" height="30" as="geometry" />
        </mxCell>
        <mxCell id="gSDU4zGEOPTeR5sOLjtx-27" style="edgeStyle=orthogonalEdgeStyle;rounded=0;orthogonalLoop=1;jettySize=auto;html=1;entryX=0;entryY=1;entryDx=0;entryDy=0;" edge="1" parent="WIyWlLk6GJQsqaUBKTNV-1" source="gSDU4zGEOPTeR5sOLjtx-26" target="gSDU4zGEOPTeR5sOLjtx-3">
          <mxGeometry relative="1" as="geometry">
            <Array as="points">
              <mxPoint x="600" y="240" />
              <mxPoint x="600" y="148" />
            </Array>
          </mxGeometry>
        </mxCell>
        <mxCell id="gSDU4zGEOPTeR5sOLjtx-26" value="生成到货通知单" style="rounded=1;whiteSpace=wrap;html=1;arcSize=0;" vertex="1" parent="WIyWlLk6GJQsqaUBKTNV-1">
          <mxGeometry x="470" y="225" width="70" height="30" as="geometry" />
        </mxCell>
        <mxCell id="gSDU4zGEOPTeR5sOLjtx-37" value="" style="endArrow=classic;html=1;entryX=0.5;entryY=0;entryDx=0;entryDy=0;exitX=0.5;exitY=1;exitDx=0;exitDy=0;" edge="1" parent="WIyWlLk6GJQsqaUBKTNV-1" target="gSDU4zGEOPTeR5sOLjtx-38" source="gSDU4zGEOPTeR5sOLjtx-3">
          <mxGeometry width="50" height="50" relative="1" as="geometry">
            <mxPoint x="655" y="155" as="sourcePoint" />
            <mxPoint x="970" y="240" as="targetPoint" />
          </mxGeometry>
        </mxCell>
        <mxCell id="gSDU4zGEOPTeR5sOLjtx-38" value="商品入库" style="rounded=1;whiteSpace=wrap;html=1;" vertex="1" parent="WIyWlLk6GJQsqaUBKTNV-1">
          <mxGeometry x="650" y="180" width="70" height="30" as="geometry" />
        </mxCell>
        <mxCell id="gSDU4zGEOPTeR5sOLjtx-39" value="" style="endArrow=classic;html=1;entryX=0.5;entryY=0;entryDx=0;entryDy=0;exitX=0.5;exitY=1;exitDx=0;exitDy=0;" edge="1" parent="WIyWlLk6GJQsqaUBKTNV-1" source="gSDU4zGEOPTeR5sOLjtx-38" target="gSDU4zGEOPTeR5sOLjtx-41">
          <mxGeometry width="50" height="50" relative="1" as="geometry">
            <mxPoint x="695" y="240" as="sourcePoint" />
            <mxPoint x="970" y="322.5" as="targetPoint" />
          </mxGeometry>
        </mxCell>
        <mxCell id="gSDU4zGEOPTeR5sOLjtx-40" style="edgeStyle=orthogonalEdgeStyle;rounded=0;orthogonalLoop=1;jettySize=auto;html=1;exitX=0.5;exitY=1;exitDx=0;exitDy=0;entryX=0.5;entryY=0;entryDx=0;entryDy=0;" edge="1" parent="WIyWlLk6GJQsqaUBKTNV-1" source="gSDU4zGEOPTeR5sOLjtx-41" target="gSDU4zGEOPTeR5sOLjtx-42">
          <mxGeometry relative="1" as="geometry">
            <mxPoint x="615" y="320" as="targetPoint" />
          </mxGeometry>
        </mxCell>
        <mxCell id="gSDU4zGEOPTeR5sOLjtx-49" style="edgeStyle=orthogonalEdgeStyle;rounded=0;orthogonalLoop=1;jettySize=auto;html=1;entryX=0.5;entryY=1;entryDx=0;entryDy=0;" edge="1" parent="WIyWlLk6GJQsqaUBKTNV-1" source="gSDU4zGEOPTeR5sOLjtx-41" target="gSDU4zGEOPTeR5sOLjtx-4">
          <mxGeometry relative="1" as="geometry" />
        </mxCell>
        <mxCell id="gSDU4zGEOPTeR5sOLjtx-41" value="支付运费" style="rounded=1;whiteSpace=wrap;html=1;" vertex="1" parent="WIyWlLk6GJQsqaUBKTNV-1">
          <mxGeometry x="610" y="247.5" width="70" height="30" as="geometry" />
        </mxCell>
        <mxCell id="gSDU4zGEOPTeR5sOLjtx-42" value="制作支出账" style="rounded=1;whiteSpace=wrap;html=1;" vertex="1" parent="WIyWlLk6GJQsqaUBKTNV-1">
          <mxGeometry x="610" y="320" width="70" height="30" as="geometry" />
        </mxCell>
        <mxCell id="gSDU4zGEOPTeR5sOLjtx-45" style="edgeStyle=orthogonalEdgeStyle;rounded=0;orthogonalLoop=1;jettySize=auto;html=1;exitX=0.5;exitY=1;exitDx=0;exitDy=0;entryX=0.5;entryY=0;entryDx=0;entryDy=0;" edge="1" parent="WIyWlLk6GJQsqaUBKTNV-1" source="gSDU4zGEOPTeR5sOLjtx-46" target="gSDU4zGEOPTeR5sOLjtx-47">
          <mxGeometry relative="1" as="geometry">
            <mxPoint x="695" y="320" as="targetPoint" />
          </mxGeometry>
        </mxCell>
        <mxCell id="gSDU4zGEOPTeR5sOLjtx-46" value="生成入库单" style="rounded=1;whiteSpace=wrap;html=1;" vertex="1" parent="WIyWlLk6GJQsqaUBKTNV-1">
          <mxGeometry x="690" y="247.5" width="70" height="30" as="geometry" />
        </mxCell>
        <mxCell id="gSDU4zGEOPTeR5sOLjtx-51" style="edgeStyle=orthogonalEdgeStyle;rounded=0;orthogonalLoop=1;jettySize=auto;html=1;entryX=0;entryY=0.5;entryDx=0;entryDy=0;" edge="1" parent="WIyWlLk6GJQsqaUBKTNV-1" source="gSDU4zGEOPTeR5sOLjtx-47" target="gSDU4zGEOPTeR5sOLjtx-2">
          <mxGeometry relative="1" as="geometry">
            <Array as="points">
              <mxPoint x="725" y="370" />
              <mxPoint x="110" y="370" />
              <mxPoint x="110" y="130" />
            </Array>
          </mxGeometry>
        </mxCell>
        <mxCell id="gSDU4zGEOPTeR5sOLjtx-52" value="通过网上银行" style="edgeLabel;html=1;align=center;verticalAlign=middle;resizable=0;points=[];" vertex="1" connectable="0" parent="gSDU4zGEOPTeR5sOLjtx-51">
          <mxGeometry x="-0.2156" y="-2" relative="1" as="geometry">
            <mxPoint x="20" y="-8" as="offset" />
          </mxGeometry>
        </mxCell>
        <mxCell id="gSDU4zGEOPTeR5sOLjtx-57" style="edgeStyle=orthogonalEdgeStyle;rounded=0;orthogonalLoop=1;jettySize=auto;html=1;entryX=0.5;entryY=0;entryDx=0;entryDy=0;" edge="1" parent="WIyWlLk6GJQsqaUBKTNV-1" source="gSDU4zGEOPTeR5sOLjtx-47" target="gSDU4zGEOPTeR5sOLjtx-55">
          <mxGeometry relative="1" as="geometry" />
        </mxCell>
        <mxCell id="gSDU4zGEOPTeR5sOLjtx-47" value="支付货款" style="rounded=1;whiteSpace=wrap;html=1;" vertex="1" parent="WIyWlLk6GJQsqaUBKTNV-1">
          <mxGeometry x="690" y="320" width="70" height="30" as="geometry" />
        </mxCell>
        <mxCell id="gSDU4zGEOPTeR5sOLjtx-48" value="" style="endArrow=classic;html=1;entryX=0.5;entryY=0;entryDx=0;entryDy=0;exitX=0.5;exitY=1;exitDx=0;exitDy=0;" edge="1" parent="WIyWlLk6GJQsqaUBKTNV-1" source="gSDU4zGEOPTeR5sOLjtx-38" target="gSDU4zGEOPTeR5sOLjtx-46">
          <mxGeometry width="50" height="50" relative="1" as="geometry">
            <mxPoint x="780" y="187.5" as="sourcePoint" />
            <mxPoint x="740" y="225" as="targetPoint" />
          </mxGeometry>
        </mxCell>
        <mxCell id="gSDU4zGEOPTeR5sOLjtx-55" value="生成采购账" style="rounded=1;whiteSpace=wrap;html=1;" vertex="1" parent="WIyWlLk6GJQsqaUBKTNV-1">
          <mxGeometry x="690" y="390" width="70" height="30" as="geometry" />
        </mxCell>
        <mxCell id="gSDU4zGEOPTeR5sOLjtx-58" value="" style="endArrow=classic;html=1;exitX=0.5;exitY=1;exitDx=0;exitDy=0;" edge="1" parent="WIyWlLk6GJQsqaUBKTNV-1" source="gSDU4zGEOPTeR5sOLjtx-24">
          <mxGeometry width="50" height="50" relative="1" as="geometry">
            <mxPoint x="170" y="370" as="sourcePoint" />
            <mxPoint x="175" y="400" as="targetPoint" />
          </mxGeometry>
        </mxCell>
        <mxCell id="gSDU4zGEOPTeR5sOLjtx-59" value="制作销售账" style="rounded=1;whiteSpace=wrap;html=1;" vertex="1" parent="WIyWlLk6GJQsqaUBKTNV-1">
          <mxGeometry x="140" y="400" width="70" height="30" as="geometry" />
        </mxCell>
      </root>
    </mxGraphModel>
  </diagram>
</mxfile>
